<?xml version="1.0" encoding="UTF-8" standalone="no"?>
<!DOCTYPE svg PUBLIC "-//W3C//DTD SVG 1.1//EN" "http://www.w3.org/Graphics/SVG/1.1/DTD/svg11.dtd">
<svg xmlns="http://www.w3.org/2000/svg" version="1.1" viewBox="0 0 1024 1024" width="1024.0pt" height="1024.0pt">
<path d="M 0.00 0.00 L 1024.00 0.00 L 1024.00 1024.00 L 0.00 1024.00 L 0.00 0.00 Z" fill="#ffffff" />
<path d="M 4.73 4.73 C 342.91 4.72 681.09 4.72 1019.27 4.73 C 1019.28 105.29 1019.28 205.85 1019.27 306.41 C 947.19 306.39 875.10 306.47 803.02 306.37 C 801.66 303.63 800.30 300.95 799.71 297.91 C 795.42 276.77 784.32 257.15 768.09 242.91 C 764.88 240.31 764.16 236.86 762.47 233.28 C 759.02 225.58 754.80 218.08 749.49 211.51 C 747.28 208.73 744.58 206.40 742.39 203.62 C 740.59 201.07 739.13 198.30 737.30 195.77 C 730.73 186.64 722.41 179.24 713.39 172.61 C 709.84 170.08 707.48 166.60 704.33 163.66 C 696.14 156.11 686.20 150.32 675.75 146.52 C 673.75 145.80 672.08 144.90 670.47 143.52 C 663.13 137.33 654.41 132.41 645.86 128.09 C 637.25 123.87 628.23 120.03 618.97 117.49 C 615.84 116.61 612.60 116.24 609.51 115.28 C 606.90 114.38 604.41 113.09 601.86 112.04 C 589.31 106.88 576.40 104.65 562.97 103.28 C 555.67 102.31 548.32 102.50 541.00 101.79 C 531.68 101.56 522.32 101.45 513.00 101.45 C 507.38 101.36 502.28 103.12 497.22 105.37 C 488.24 102.90 479.15 101.66 469.86 102.97 C 464.92 103.74 460.17 105.30 455.20 105.97 C 442.80 107.66 430.43 109.52 417.97 110.79 C 409.96 111.62 402.28 112.34 394.51 114.64 C 383.52 117.79 373.97 122.86 363.87 128.04 C 352.68 133.82 341.39 139.38 330.11 144.96 C 311.97 154.01 292.90 165.02 278.66 179.63 C 274.73 183.43 272.13 188.82 267.47 191.49 C 262.23 194.81 257.63 198.88 253.25 203.24 C 240.19 216.56 229.99 232.71 223.71 250.28 C 218.74 263.91 213.93 277.77 210.83 291.96 C 210.13 296.97 208.52 301.63 206.90 306.39 C 139.51 306.44 72.12 306.40 4.73 306.41 C 4.72 205.85 4.72 105.29 4.73 4.73 Z" fill="#002147" />
<path d="M 543.99 135.22 C 557.16 135.60 570.82 136.81 583.51 140.56 C 590.79 142.57 596.54 146.85 603.97 148.05 C 609.36 149.02 614.42 150.47 619.49 152.52 C 628.87 156.29 638.08 160.86 646.40 166.63 C 649.20 168.53 651.43 170.95 653.61 173.51 C 654.99 175.34 657.30 175.41 659.39 176.06 C 666.12 177.65 672.51 180.85 678.13 184.84 C 683.08 188.27 686.11 193.45 690.95 197.06 C 700.71 204.36 709.72 211.52 715.00 222.86 C 717.15 227.03 720.93 228.65 723.75 232.25 C 728.15 237.79 731.38 244.40 734.07 250.91 C 735.36 253.92 736.29 257.25 737.99 260.04 C 739.55 262.31 742.02 264.08 744.11 265.85 C 756.63 276.01 764.87 290.67 767.71 306.49 C 768.87 313.67 772.62 318.88 775.69 325.31 C 780.05 334.26 783.03 344.35 786.27 353.79 C 788.59 359.58 787.27 366.77 787.92 373.01 C 788.60 378.94 788.08 384.70 786.81 390.50 C 785.49 396.71 785.86 402.87 785.27 409.13 C 784.60 415.11 783.33 421.32 780.83 426.81 C 779.39 430.05 777.42 432.54 776.76 436.07 C 776.02 440.08 775.54 444.01 774.01 447.84 C 770.00 458.41 761.57 466.91 751.23 471.40 C 745.00 474.27 738.56 474.54 731.84 476.82 C 727.52 489.73 720.21 501.92 710.52 511.50 C 706.48 515.62 701.59 517.76 696.86 520.88 C 690.24 525.21 682.57 528.25 675.25 531.20 C 666.37 534.56 657.27 537.90 647.95 539.82 C 643.74 540.76 638.42 540.58 634.62 542.68 C 632.27 545.74 631.03 549.46 628.30 552.33 C 624.03 557.04 617.48 560.81 610.94 559.37 C 605.79 558.03 602.45 552.84 598.78 549.33 C 594.30 545.12 589.47 540.94 584.10 537.90 C 581.03 535.71 576.67 537.06 572.98 536.77 C 565.39 536.95 558.52 532.65 554.86 526.10 C 551.92 521.08 551.90 515.64 549.48 510.50 C 548.18 507.61 546.52 505.08 544.87 502.40 C 538.98 502.42 533.68 504.07 527.99 505.36 C 525.58 505.96 523.75 507.31 521.78 508.77 C 513.75 515.01 504.43 519.65 494.76 522.75 C 488.55 524.79 482.05 524.83 475.82 526.88 C 471.14 528.43 466.47 529.62 461.52 529.92 C 442.28 531.26 423.46 527.00 406.00 519.03 C 400.76 516.45 395.81 513.45 390.23 511.58 C 382.90 508.96 375.62 505.43 371.77 498.26 C 369.61 494.51 369.67 490.68 369.16 486.54 C 368.42 482.32 363.48 479.33 361.00 475.98 C 355.82 469.19 354.48 459.41 356.05 451.18 C 357.03 445.30 359.97 440.51 363.15 435.60 C 356.44 434.77 350.63 437.71 344.00 437.72 C 334.43 437.95 324.18 437.69 314.94 435.01 C 306.65 433.13 298.18 432.68 289.97 430.21 C 278.60 427.08 268.21 421.62 260.64 412.39 C 256.62 407.29 252.44 401.85 249.95 395.81 C 248.12 391.50 248.43 386.95 247.23 382.56 C 245.81 380.48 243.81 378.83 242.35 376.76 C 239.29 372.51 237.54 367.23 237.11 362.02 C 236.69 356.61 235.49 351.41 235.53 346.00 C 235.43 336.32 236.34 326.50 238.42 317.03 C 239.34 312.54 241.53 308.47 242.37 303.99 C 243.75 293.58 247.38 283.27 250.61 273.29 C 254.11 263.32 257.19 253.81 262.74 244.73 C 268.59 235.24 275.96 225.70 285.22 219.33 C 287.94 217.31 291.62 216.49 294.09 214.25 C 296.79 210.49 298.76 206.38 302.08 203.05 C 311.37 193.30 323.74 185.85 335.48 179.41 C 347.77 172.91 360.39 167.05 372.74 160.66 C 381.63 156.24 390.45 151.15 399.76 147.69 C 408.44 144.49 416.98 144.20 426.08 143.21 C 438.06 141.84 450.01 140.05 461.96 138.42 C 468.05 137.63 473.17 135.18 479.02 135.55 C 485.72 135.84 492.88 138.76 499.32 140.17 C 500.03 140.33 500.71 140.36 501.38 140.26 C 506.69 138.49 511.15 133.92 517.00 134.48 C 525.99 134.72 535.03 134.42 543.99 135.22 Z" fill="#002147" />
<path d="M 516.97 139.29 C 528.30 139.42 539.70 139.29 551.00 140.25 C 561.90 140.99 572.71 142.13 583.19 145.38 C 579.24 156.82 574.88 168.12 570.79 179.51 C 564.22 197.53 557.56 215.51 551.02 233.53 C 531.30 226.50 511.68 219.20 491.99 212.09 C 489.34 211.14 486.49 210.27 484.03 208.90 C 484.24 207.60 484.59 206.33 485.01 205.09 C 491.16 188.40 497.30 171.70 503.38 154.99 C 491.67 150.78 479.96 146.56 468.33 142.16 C 471.90 141.15 475.25 140.06 479.02 140.36 C 486.60 140.71 493.63 144.36 501.02 145.16 C 506.36 144.68 511.42 138.91 516.97 139.29 Z" fill="#d4af37" />
<path d="M 468.33 142.16 C 479.96 146.56 491.67 150.78 503.38 154.99 C 497.30 171.70 491.16 188.40 485.01 205.09 C 484.59 206.33 484.24 207.60 484.03 208.90 C 486.49 210.27 489.34 211.14 491.99 212.09 C 511.68 219.20 531.30 226.50 551.02 233.53 C 557.56 215.51 564.22 197.53 570.79 179.51 C 592.91 187.78 615.17 195.72 637.33 203.86 C 632.37 217.39 627.40 230.93 622.45 244.46 C 620.76 248.93 619.08 253.38 617.79 257.98 C 640.18 266.06 662.53 274.26 684.89 282.42 C 680.09 295.44 675.34 308.49 670.52 321.51 C 663.95 339.53 657.29 357.53 650.74 375.56 C 628.56 367.42 606.32 359.43 584.17 351.23 C 590.73 333.25 597.39 315.31 603.90 297.32 C 581.65 289.07 559.29 281.12 537.05 272.85 L 536.73 272.74 C 529.84 290.60 523.48 308.69 516.83 326.64 C 494.33 318.64 471.94 310.29 449.47 302.18 C 455.97 284.13 462.88 266.21 469.14 248.08 C 446.70 240.06 424.35 231.77 401.95 223.65 C 406.70 210.59 411.51 197.55 416.28 184.51 C 420.78 172.18 425.31 159.87 429.83 147.56 C 442.69 145.88 455.52 144.23 468.33 142.16 Z" fill="#ffffff" />
<path d="M 369.84 167.64 C 385.39 173.05 400.83 178.84 416.28 184.51 C 411.51 197.55 406.70 210.59 401.95 223.65 C 395.27 241.61 388.76 259.65 382.11 277.63 C 359.64 269.55 337.24 261.16 314.75 253.18 C 321.23 235.32 327.90 217.52 334.31 199.64 C 336.48 193.75 338.72 187.89 340.78 181.97 C 350.42 177.11 360.06 172.18 369.84 167.64 Z" fill="#d4af37" />
<path d="M 648.02 174.47 C 649.33 175.93 650.62 177.67 652.27 178.75 C 653.93 179.68 655.97 180.01 657.79 180.52 C 663.62 181.89 669.18 184.51 674.15 187.82 C 679.55 191.39 682.90 196.92 688.13 200.85 C 694.84 206.03 701.27 210.64 706.39 217.59 C 708.59 220.56 709.99 223.94 712.01 227.00 C 713.62 229.42 715.94 231.22 718.10 233.12 C 713.58 231.69 709.13 230.08 704.71 228.36 C 698.11 246.38 691.51 264.40 684.89 282.42 C 662.53 274.26 640.18 266.06 617.79 257.98 C 619.08 253.38 620.76 248.93 622.45 244.46 C 627.40 230.93 632.37 217.39 637.33 203.86 C 640.88 194.06 644.63 184.33 648.02 174.47 Z" fill="#d4af37" />
<path d="M 340.78 181.97 C 338.72 187.89 336.48 193.75 334.31 199.64 L 334.34 198.99 C 329.72 197.28 325.08 195.63 320.44 193.99 C 326.96 189.55 333.79 185.60 340.78 181.97 Z" fill="#ffffff" />
<path d="M 401.95 223.65 C 424.35 231.77 446.70 240.06 469.14 248.08 C 462.88 266.21 455.97 284.13 449.47 302.18 C 444.66 315.22 439.86 328.28 435.12 341.35 C 412.66 333.17 390.15 325.10 367.77 316.73 C 372.55 303.70 377.32 290.66 382.11 277.63 C 388.76 259.65 395.27 241.61 401.95 223.65 Z" fill="#002147" />
<path d="M 314.75 253.18 C 337.24 261.16 359.64 269.55 382.11 277.63 C 377.32 290.66 372.55 303.70 367.77 316.73 C 361.15 334.74 354.54 352.75 347.95 370.77 C 325.51 362.63 303.07 354.46 280.66 346.23 C 287.22 328.24 293.84 310.27 300.42 292.29 C 305.19 279.25 309.97 266.21 314.75 253.18 Z" fill="#ffffff" />
<path d="M 536.73 272.74 L 537.05 272.85 C 559.29 281.12 581.65 289.07 603.90 297.32 C 597.39 315.31 590.73 333.25 584.17 351.23 C 606.32 359.43 628.56 367.42 650.74 375.56 C 645.95 388.63 641.12 401.68 636.38 414.77 C 629.77 432.76 623.17 450.76 616.58 468.76 C 594.15 460.50 571.66 452.41 549.23 444.15 C 555.81 426.17 562.44 408.21 568.98 390.21 C 546.81 382.13 524.65 373.99 502.44 365.98 C 507.19 352.85 512.04 339.76 516.83 326.64 C 523.48 308.69 529.84 290.60 536.73 272.74 Z" fill="#002147" />
<path d="M 254.75 275.81 C 270.08 280.98 285.19 286.82 300.42 292.29 C 293.84 310.27 287.22 328.24 280.66 346.23 C 275.79 359.29 271.07 372.41 266.22 385.48 C 261.34 383.70 256.47 381.87 251.57 380.13 C 248.99 376.91 246.05 374.57 244.24 370.73 C 241.74 365.67 241.91 360.45 241.07 354.94 C 240.14 348.99 240.13 343.00 240.51 337.00 C 241.12 328.18 242.12 318.71 245.45 310.47 C 247.21 305.88 247.36 301.18 248.55 296.46 C 250.29 289.53 252.51 282.58 254.75 275.81 Z" fill="#d4af37" />
<path d="M 758.05 291.14 C 760.29 296.59 762.20 302.07 763.16 307.90 C 764.23 314.23 767.24 319.27 770.15 324.85 C 775.13 334.27 778.27 345.00 781.73 355.15 C 783.18 359.10 782.91 362.87 783.09 367.00 C 783.20 374.86 784.05 382.24 782.07 389.97 C 780.46 400.73 781.52 411.28 777.83 421.78 C 757.84 414.77 738.03 407.24 718.07 400.15 C 724.70 382.13 731.30 364.10 737.91 346.07 C 744.62 327.76 751.32 309.45 758.05 291.14 Z" fill="#ffffff" />
<path d="M 449.47 302.18 C 471.94 310.29 494.33 318.64 516.83 326.64 C 512.04 339.76 507.19 352.85 502.44 365.98 C 495.77 383.98 489.28 402.03 482.56 420.01 C 460.13 411.78 437.64 403.68 415.22 395.41 C 410.56 408.49 405.68 421.50 400.93 434.55 C 378.47 426.40 356.03 418.20 333.59 410.01 C 338.35 396.92 343.17 383.86 347.95 370.77 C 354.54 352.75 361.15 334.74 367.77 316.73 C 390.15 325.10 412.66 333.17 435.12 341.35 C 439.86 328.28 444.66 315.22 449.47 302.18 Z" fill="#d4af37" />
<path d="M 670.52 321.51 C 692.95 329.79 715.41 337.99 737.91 346.07 C 731.30 364.10 724.70 382.13 718.07 400.15 C 713.27 413.22 708.49 426.30 703.68 439.37 C 681.28 431.07 658.80 423.01 636.38 414.77 C 641.12 401.68 645.95 388.63 650.74 375.56 C 657.29 357.53 663.95 339.53 670.52 321.51 Z" fill="#d4af37" />
<path d="M 4.73 340.28 C 70.64 340.27 136.55 340.30 202.46 340.27 C 202.46 345.91 202.34 351.40 203.18 357.00 C 204.10 362.76 204.28 368.48 205.56 374.15 C 138.62 374.15 71.67 374.15 4.73 374.15 C 4.73 362.86 4.71 351.57 4.73 340.28 Z" fill="#d4af37" />
<path d="M 816.65 340.28 C 884.19 340.28 951.73 340.28 1019.27 340.28 C 1019.29 351.57 1019.27 362.86 1019.27 374.15 C 953.25 374.15 887.22 374.16 821.19 374.14 C 820.71 368.08 820.83 362.02 820.51 355.96 C 820.20 350.36 818.34 345.55 816.65 340.28 Z" fill="#d4af37" />
<path d="M 502.44 365.98 C 524.65 373.99 546.81 382.13 568.98 390.21 C 562.44 408.21 555.81 426.17 549.23 444.15 C 544.43 457.23 539.61 470.30 534.85 483.39 C 512.68 475.25 490.47 467.21 468.29 459.10 C 473.01 446.05 477.87 433.06 482.56 420.01 C 489.28 402.03 495.77 383.98 502.44 365.98 Z" fill="#ffffff" />
<path d="M 4.73 374.15 C 71.67 374.15 138.62 374.15 205.56 374.15 C 207.35 381.41 210.29 388.32 214.46 394.53 C 216.77 397.91 216.82 401.43 218.19 405.31 C 221.43 414.98 227.72 424.03 233.98 432.01 C 241.96 442.30 252.44 450.28 264.17 455.85 C 275.47 461.15 287.89 464.29 300.23 465.97 C 308.08 467.01 315.30 469.89 323.33 469.95 C 325.20 478.50 328.00 486.64 333.11 493.84 C 334.95 496.58 337.20 498.57 338.00 501.79 C 339.22 506.37 340.73 510.77 343.15 514.87 C 350.54 527.96 362.92 536.85 376.88 541.90 C 383.65 544.16 389.45 548.19 396.07 550.83 C 410.90 557.01 426.92 561.63 443.01 562.69 C 456.54 563.95 471.04 563.39 483.99 558.97 C 488.30 557.61 492.68 557.29 497.06 556.30 C 507.59 554.03 517.86 549.72 527.31 544.61 C 536.04 558.40 550.67 567.97 567.00 569.52 C 569.45 569.84 571.82 569.52 573.79 571.24 C 577.22 574.12 579.84 577.84 583.27 580.75 C 591.19 588.14 602.11 592.82 613.01 592.71 C 625.86 593.16 638.64 587.64 648.12 579.14 C 650.43 577.13 652.35 574.71 654.64 572.68 C 657.91 571.12 661.79 570.69 665.26 569.57 C 678.26 565.69 691.07 560.91 703.34 555.09 C 710.23 551.92 716.28 547.62 722.83 543.80 C 736.92 534.59 747.87 519.67 755.79 505.02 C 770.35 500.35 783.46 492.03 793.06 480.04 C 799.37 472.47 804.00 463.49 806.82 454.05 C 807.98 450.01 808.22 446.02 810.15 442.20 C 814.41 433.42 816.82 423.60 818.04 413.96 C 818.91 407.76 818.25 401.72 819.54 395.57 C 821.03 388.51 821.52 381.34 821.19 374.14 C 887.22 374.16 953.25 374.15 1019.27 374.15 C 1019.27 589.19 1019.28 804.23 1019.27 1019.27 C 681.09 1019.28 342.91 1019.28 4.73 1019.27 C 4.72 804.23 4.73 589.19 4.73 374.15 Z" fill="#002147" />
<path d="M 251.57 380.13 C 256.47 381.87 261.34 383.70 266.22 385.48 C 264.06 391.42 261.85 397.33 259.72 403.28 C 257.32 399.80 254.83 396.31 253.73 392.16 C 252.76 388.18 252.77 384.09 251.57 380.13 Z" fill="#ffffff" />
<path d="M 333.59 410.01 C 356.03 418.20 378.47 426.40 400.93 434.55 C 394.30 452.52 387.75 470.52 381.12 488.49 C 379.90 491.82 378.55 495.16 377.55 498.56 C 374.43 494.67 374.38 490.46 373.76 485.75 C 372.87 479.02 366.19 476.46 363.22 470.75 C 359.30 463.36 359.31 453.89 362.43 446.23 C 363.74 442.86 366.58 440.21 367.74 436.83 C 368.33 434.09 366.37 431.95 363.85 431.26 C 358.23 429.48 351.81 432.49 345.95 432.79 C 338.98 433.71 332.32 432.67 325.35 432.37 C 328.16 424.94 330.84 417.46 333.59 410.01 Z" fill="#ffffff" />
<path d="M 636.38 414.77 C 658.80 423.01 681.28 431.07 703.68 439.37 C 697.11 457.34 690.42 475.28 683.96 493.30 C 693.15 496.77 702.49 499.87 711.59 503.55 C 709.30 505.88 707.00 508.42 704.47 510.47 C 702.08 512.40 699.14 513.84 696.52 515.49 C 686.73 522.11 674.97 526.33 663.91 530.32 C 643.30 523.05 622.85 515.32 602.27 507.99 C 606.93 494.88 611.82 481.84 616.58 468.76 C 623.17 450.76 629.77 432.76 636.38 414.77 Z" fill="#ffffff" />
<path d="M 549.23 444.15 C 571.66 452.41 594.15 460.50 616.58 468.76 C 611.82 481.84 606.93 494.88 602.27 507.99 C 598.67 517.65 595.44 527.49 591.43 536.98 C 589.06 535.48 586.69 533.67 584.08 532.61 C 579.03 531.49 573.66 533.16 568.44 531.45 C 562.83 529.84 558.88 525.27 557.29 519.75 C 555.88 514.63 554.81 509.61 552.02 505.00 C 550.47 502.46 548.39 498.15 545.11 497.76 C 539.70 497.39 534.04 499.38 528.68 500.09 C 530.80 494.54 532.80 488.96 534.85 483.39 C 539.61 470.30 544.43 457.23 549.23 444.15 Z" fill="#d4af37" />
<path d="M 381.12 488.49 C 403.54 496.73 425.98 504.88 448.43 513.04 C 447.06 517.00 445.62 520.94 444.12 524.86 C 428.79 523.35 413.63 518.19 400.21 510.69 C 392.27 506.53 383.80 505.68 377.55 498.56 C 378.55 495.16 379.90 491.82 381.12 488.49 Z" fill="#d4af37" />
<path d="M 468.83 664.98 C 468.09 666.29 467.33 667.60 466.58 668.90 C 462.84 667.28 459.17 665.88 455.05 665.68 C 448.86 665.17 442.36 667.52 438.06 672.02 C 434.61 675.79 432.37 680.85 432.26 685.98 C 432.04 691.33 432.10 696.37 434.61 701.23 C 437.35 706.96 442.66 710.94 448.97 711.81 C 455.41 712.95 461.42 711.18 467.08 708.19 C 467.89 709.47 468.70 710.75 469.51 712.03 C 461.50 716.93 451.63 718.41 442.71 715.24 C 435.25 712.53 429.82 705.99 427.88 698.37 C 425.90 690.50 426.46 681.49 430.25 674.23 C 433.77 667.46 440.44 662.58 447.99 661.40 C 455.20 660.09 462.45 661.41 468.83 664.98 Z" fill="#ffffff" />
<path d="M 599.58 666.47 C 598.68 667.56 597.78 668.65 596.88 669.75 C 593.13 667.37 589.65 665.20 585.01 665.44 C 580.11 665.31 575.25 667.71 573.85 672.66 C 572.79 676.51 574.98 679.82 578.08 681.89 C 583.58 685.41 591.69 686.95 596.25 691.77 C 600.52 695.86 600.64 702.60 598.82 707.85 C 596.35 713.82 590.30 716.94 584.02 716.88 C 577.61 717.29 572.08 715.25 567.08 711.33 C 567.99 710.14 568.91 708.95 569.83 707.77 C 575.83 711.54 582.11 714.13 589.12 711.09 C 595.13 708.38 596.78 699.69 591.84 695.16 C 586.38 690.20 577.62 688.99 572.13 683.85 C 568.71 680.52 567.87 674.83 569.39 670.44 C 570.68 666.40 573.99 663.43 577.94 662.06 C 585.54 659.82 593.53 661.22 599.58 666.47 Z" fill="#ffffff" />
<path d="M 719.70 661.79 C 725.80 660.51 732.27 660.85 737.63 664.29 C 744.26 668.44 747.84 675.47 749.00 683.04 C 750.36 692.01 748.61 702.42 742.45 709.40 C 735.44 717.50 722.48 719.25 713.47 713.55 C 708.21 710.36 704.60 704.71 702.94 698.87 C 700.79 691.00 701.30 682.17 704.71 674.73 C 707.60 668.47 712.98 663.55 719.70 661.79 Z" fill="#ffffff" />
<path d="M 190.58 661.76 C 197.94 661.88 204.62 661.30 211.83 662.61 C 214.95 663.24 217.84 664.66 219.78 667.27 C 225.70 674.70 223.81 687.66 214.82 691.80 C 209.17 694.32 201.66 693.44 195.57 693.63 C 195.57 701.09 195.57 708.55 195.57 716.01 C 193.89 716.01 192.21 716.01 190.54 716.00 C 190.57 697.92 190.48 679.84 190.58 661.76 Z" fill="#ffffff" />
<path d="M 271.06 661.74 C 278.34 661.94 286.62 661.14 293.65 663.06 C 301.90 665.74 304.94 676.67 300.87 683.87 C 298.70 687.46 295.18 689.36 291.15 690.16 C 293.87 691.49 295.86 693.01 297.20 695.79 C 300.46 702.38 303.33 709.20 306.28 715.95 C 304.52 715.97 302.76 715.99 301.00 716.00 C 297.95 709.44 295.47 702.43 291.76 696.21 C 288.80 691.02 281.36 691.99 276.30 691.66 C 275.30 699.69 276.00 707.92 275.80 716.01 C 274.15 716.01 272.51 716.01 270.86 716.01 C 270.98 697.93 270.60 679.81 271.06 661.74 Z" fill="#ffffff" />
<path d="M 352.18 661.75 C 361.61 661.79 371.04 661.76 380.46 661.76 C 380.48 663.29 380.50 664.81 380.51 666.33 C 372.75 666.33 364.98 666.33 357.21 666.33 C 357.21 672.72 357.21 679.10 357.21 685.48 C 364.54 685.52 371.88 685.42 379.21 685.56 C 379.19 686.95 379.17 688.35 379.16 689.75 C 371.84 689.83 364.53 689.78 357.22 689.79 C 357.20 697.01 357.21 704.23 357.21 711.45 C 365.21 711.47 373.22 711.43 381.23 711.47 C 381.23 712.97 381.23 714.48 381.23 715.98 C 371.46 716.02 361.68 716.07 351.90 715.95 C 352.07 697.89 351.56 679.79 352.18 661.75 Z" fill="#ffffff" />
<path d="M 515.22 661.58 C 516.51 661.75 517.80 661.91 519.09 662.07 L 520.37 662.23 C 520.22 680.13 520.33 698.04 520.31 715.94 C 518.58 715.97 516.86 716.00 515.13 716.03 C 515.19 697.88 515.02 679.73 515.22 661.58 Z" fill="#ffffff" />
<path d="M 649.17 661.56 C 650.44 661.72 651.71 661.90 652.98 662.10 L 654.34 662.34 C 654.15 680.20 654.29 698.06 654.27 715.92 C 652.48 715.95 650.69 715.98 648.90 716.00 C 649.06 697.86 648.57 679.68 649.17 661.56 Z" fill="#ffffff" />
<path d="M 797.82 662.16 C 799.71 662.14 801.60 662.12 803.49 662.09 C 812.66 677.56 821.67 693.16 830.56 708.80 C 830.75 693.24 830.50 677.69 830.52 662.13 C 832.12 662.14 833.72 662.15 835.33 662.16 C 835.32 680.13 835.33 698.10 835.33 716.07 C 833.26 716.01 831.20 715.94 829.14 715.84 C 820.53 700.30 811.26 685.12 802.60 669.61 C 802.37 685.07 802.64 700.54 802.61 716.01 C 801.02 716.01 799.42 716.01 797.83 716.01 C 797.82 698.06 797.83 680.11 797.82 662.16 Z" fill="#ffffff" />
<path d="M 291.12 666.97 C 298.28 669.25 299.67 679.45 294.18 684.19 C 289.55 688.63 281.68 687.57 275.79 687.60 C 275.80 680.51 275.80 673.42 275.79 666.34 C 280.75 666.43 286.30 665.64 291.12 666.97 Z" fill="#002147" />
<path d="M 718.54 666.80 C 723.47 664.72 729.57 664.99 734.16 667.84 C 740.58 671.65 743.90 679.76 743.78 687.01 C 744.07 694.31 742.97 701.34 738.05 707.03 C 733.03 712.80 724.10 714.07 717.50 710.31 C 711.75 707.09 708.43 700.27 707.51 693.96 C 706.98 688.44 706.97 682.37 709.14 677.16 C 710.88 672.64 714.07 668.80 718.54 666.80 Z" fill="#002147" />
<path d="M 195.57 666.28 C 200.65 666.39 206.04 665.80 211.03 666.83 C 215.59 668.10 217.93 672.47 217.84 677.00 C 218.13 681.56 216.38 686.07 212.02 688.02 C 207.09 689.99 200.82 689.26 195.57 689.39 C 195.57 681.68 195.58 673.98 195.57 666.28 Z" fill="#002147" />
<path d="M 256.95 780.79 C 256.02 781.84 255.09 782.88 254.16 783.92 C 248.38 779.81 241.19 777.72 234.77 781.81 C 230.38 784.67 229.77 791.76 233.98 795.03 C 239.54 799.57 249.43 800.78 254.29 806.75 C 259.40 812.65 258.10 822.36 252.37 827.34 C 247.72 831.28 240.77 831.87 235.01 830.69 C 231.04 829.92 227.80 827.94 224.48 825.75 C 225.32 824.49 226.17 823.24 227.02 821.98 C 230.48 823.89 233.96 826.01 237.97 826.49 C 241.47 826.85 245.38 826.42 248.25 824.21 C 252.71 820.80 253.49 813.61 249.39 809.57 C 243.93 804.28 233.88 803.10 228.76 797.23 C 224.09 791.36 225.57 781.93 232.00 777.92 C 239.68 773.15 250.35 774.80 256.95 780.79 Z" fill="#ffffff" />
<path d="M 423.11 779.19 C 422.42 780.50 421.71 781.80 421.01 783.11 C 414.84 780.18 408.01 779.22 401.33 780.80 C 394.89 782.62 389.67 787.92 387.66 794.26 C 384.78 803.49 386.33 816.26 394.55 822.42 C 402.55 828.28 413.08 827.13 421.32 822.38 C 422.16 823.65 422.99 824.91 423.82 826.18 C 415.13 831.61 403.85 832.99 394.53 828.35 C 386.81 824.43 382.20 816.51 381.35 808.04 C 380.92 802.27 381.04 796.69 383.28 791.28 C 385.79 784.65 391.10 779.22 397.79 776.81 C 406.16 773.79 415.41 774.86 423.11 779.19 Z" fill="#ffffff" />
<path d="M 147.37 776.31 C 151.56 776.03 155.79 776.24 160.00 776.20 C 164.84 776.27 169.80 776.26 173.98 779.08 C 182.54 785.35 181.60 801.19 171.81 805.85 C 166.21 808.67 158.49 807.45 152.34 807.72 C 152.25 815.22 152.32 822.72 152.29 830.22 C 150.62 830.22 148.94 830.22 147.26 830.23 C 147.34 812.28 147.11 794.24 147.37 776.31 Z" fill="#ffffff" />
<path d="M 300.70 776.24 C 302.59 776.22 304.48 776.21 306.36 776.20 C 311.25 785.37 315.80 794.73 320.88 803.80 C 325.46 794.56 330.34 785.46 334.94 776.23 C 336.73 776.23 338.52 776.24 340.30 776.26 C 335.18 785.57 330.45 795.09 325.34 804.40 C 324.23 806.57 323.01 808.42 323.08 810.96 C 323.01 817.42 323.14 823.88 323.05 830.34 C 321.63 830.05 318.80 830.76 317.89 829.42 C 317.52 822.95 318.02 816.44 317.74 809.97 C 317.68 808.10 316.80 806.71 315.99 805.09 C 310.79 795.53 305.85 785.83 300.70 776.24 Z" fill="#ffffff" />
<path d="M 469.51 776.33 C 471.17 776.17 472.86 776.17 474.54 776.13 C 474.55 783.93 474.54 791.73 474.54 799.54 C 483.63 799.55 492.71 799.54 501.80 799.54 C 501.80 791.77 501.80 784.00 501.80 776.22 C 503.60 776.23 505.41 776.24 507.21 776.26 C 507.20 794.24 507.21 812.23 507.20 830.21 C 505.40 830.21 503.60 830.22 501.80 830.22 C 501.76 821.41 501.90 812.59 501.71 803.78 C 492.67 803.81 483.63 803.79 474.59 803.79 C 474.50 812.60 474.57 821.42 474.54 830.23 C 472.83 830.23 471.11 830.22 469.40 830.22 C 469.49 812.28 469.24 794.25 469.51 776.33 Z" fill="#ffffff" />
<path d="M 562.63 776.26 C 562.74 794.24 562.64 812.24 562.68 830.22 C 560.98 830.22 559.29 830.22 557.59 830.22 C 557.59 812.20 557.59 794.18 557.60 776.16 C 559.27 776.18 560.96 776.18 562.63 776.26 Z" fill="#ffffff" />
<path d="M 627.10 776.19 C 629.08 776.20 631.07 776.22 633.06 776.25 C 639.56 794.25 646.18 812.20 652.75 830.18 C 650.98 830.21 649.20 830.25 647.43 830.29 C 645.29 825.13 643.65 819.81 641.63 814.61 C 633.87 814.66 626.10 814.67 618.34 814.61 C 616.21 819.77 614.50 825.04 612.55 830.27 C 610.84 830.24 609.12 830.21 607.41 830.18 C 614.02 812.20 620.54 794.19 627.10 776.19 Z" fill="#ffffff" />
<path d="M 684.66 776.23 C 697.33 776.16 709.99 776.21 722.66 776.20 C 722.65 777.64 722.65 779.08 722.64 780.52 C 717.22 780.51 711.81 780.52 706.39 780.52 C 706.38 797.08 706.39 813.65 706.39 830.21 C 704.63 830.22 702.88 830.22 701.13 830.23 C 701.13 813.66 701.14 797.09 701.13 780.52 C 695.63 780.52 690.14 780.53 684.65 780.49 C 684.65 779.07 684.66 777.65 684.66 776.23 Z" fill="#ffffff" />
<path d="M 769.60 776.32 C 774.05 776.02 778.55 776.24 783.00 776.21 C 787.76 776.32 792.60 776.36 796.43 779.59 C 801.00 783.67 802.32 790.75 800.30 796.40 C 798.53 800.83 794.47 803.66 789.76 804.11 C 792.19 805.45 794.25 806.90 795.51 809.47 C 798.99 816.20 801.78 823.31 804.97 830.19 C 803.21 830.21 801.46 830.23 799.70 830.25 C 796.39 823.59 794.06 816.20 790.02 809.97 C 786.58 804.91 779.75 806.56 774.54 806.24 C 774.54 814.24 774.55 822.23 774.53 830.23 C 772.86 830.23 771.18 830.23 769.50 830.23 C 769.57 812.29 769.34 794.25 769.60 776.32 Z" fill="#ffffff" />
<path d="M 844.30 776.32 C 846.16 776.19 848.05 776.20 849.91 776.18 C 854.61 785.45 859.53 794.60 864.20 803.87 C 869.11 794.70 873.71 785.36 878.56 776.16 C 880.29 776.19 882.03 776.22 883.77 776.25 C 878.71 785.69 873.83 795.24 868.72 804.66 C 867.67 806.76 866.45 808.51 866.52 810.96 C 866.45 817.38 866.57 823.81 866.51 830.23 C 864.83 830.23 863.14 830.23 861.46 830.23 C 861.41 823.81 861.53 817.38 861.45 810.96 C 861.51 809.16 860.83 807.67 860.02 806.11 C 854.74 796.22 849.47 786.27 844.30 776.32 Z" fill="#ffffff" />
<path d="M 152.41 780.51 C 156.59 780.24 160.88 780.31 165.06 780.57 C 168.56 780.78 171.72 782.52 173.29 785.73 C 175.99 791.05 174.77 799.25 169.05 802.10 C 164.15 804.37 157.61 803.32 152.30 803.57 C 152.39 795.89 152.10 788.17 152.41 780.51 Z" fill="#002147" />
<path d="M 789.77 781.22 C 796.77 783.45 798.25 793.22 793.15 798.11 C 788.57 802.80 780.50 801.74 774.54 801.87 C 774.54 794.72 774.54 787.57 774.54 780.41 C 779.47 780.58 785.02 779.78 789.77 781.22 Z" fill="#002147" />
<path d="M 629.89 781.59 C 633.28 791.16 636.93 800.66 640.05 810.33 C 633.27 810.38 626.50 810.35 619.72 810.35 C 622.62 801.72 625.77 793.17 628.81 784.58 C 629.17 783.58 629.53 782.59 629.89 781.59 Z" fill="#002147" />
<path d="M 421.67 890.32 C 421.68 906.79 421.67 923.27 421.68 939.74 C 429.41 939.81 437.15 939.78 444.88 939.77 C 444.96 941.32 445.03 942.88 445.11 944.43 C 435.60 944.44 426.10 944.44 416.60 944.43 C 416.58 926.41 416.61 908.38 416.59 890.36 C 418.28 890.34 419.98 890.33 421.67 890.32 Z" fill="#d4af37" />
<path d="M 508.17 890.31 C 510.14 890.34 512.12 890.37 514.09 890.40 C 520.61 908.42 527.24 926.39 533.80 944.39 C 532.01 944.42 530.21 944.46 528.42 944.49 C 526.36 939.28 524.71 933.92 522.57 928.74 C 514.89 928.81 507.22 928.83 499.55 928.73 C 497.20 933.87 495.60 939.23 493.61 944.50 C 491.89 944.46 490.17 944.42 488.45 944.38 C 495.11 926.39 501.62 908.35 508.17 890.31 Z" fill="#d4af37" />
<path d="M 578.85 890.33 C 584.57 890.39 590.31 890.17 596.03 890.45 C 599.87 890.67 603.82 891.56 606.58 894.43 C 611.37 899.07 612.19 907.68 607.90 912.89 C 606.32 914.80 604.19 915.73 602.06 916.87 C 605.37 917.71 608.36 918.58 610.39 921.57 C 614.97 928.82 611.85 939.52 603.69 942.67 C 596.21 945.59 586.81 944.06 578.86 944.44 C 578.83 926.40 578.84 908.37 578.85 890.33 Z" fill="#d4af37" />
<path d="M 584.20 894.55 C 589.27 894.62 595.28 894.04 600.06 895.87 C 606.37 898.37 607.34 907.97 601.94 911.89 C 597.24 915.65 589.86 914.59 584.21 914.77 C 584.20 908.03 584.21 901.29 584.20 894.55 Z" fill="#002147" />
<path d="M 510.94 895.83 C 514.36 905.36 517.94 914.85 521.11 924.47 C 514.33 924.52 507.55 924.49 500.77 924.49 C 504.07 914.91 507.53 905.38 510.94 895.83 Z" fill="#002147" />
<path d="M 584.34 919.34 C 590.15 919.16 597.50 918.41 602.78 921.22 C 608.60 924.73 608.63 933.33 603.30 937.29 C 598.30 940.95 590.12 940.21 584.24 940.24 C 584.30 933.29 583.97 926.29 584.34 919.34 Z" fill="#002147" />
</svg>